<svg viewBox="0 0 520 680" xmlns="http://www.w3.org/2000/svg" role="img" style="background:#fff;font-family:Arial,sans-serif;">
  <title>Diagrama de Encaixe — CP Almofada 42x42</title>
  <text x="260" y="28" text-anchor="middle" font-size="13" font-weight="700" fill="#3a2a1a">DIAGRAMA DE ENCAIXE / CORTE</text>
  <text x="260" y="44" text-anchor="middle" font-size="10" fill="#888">CP ALMOFADA ARABESCO 42X42 CM</text>
  <text x="14" y="68" font-size="9" fill="#555">Tecido: 1,40m largura</text>
  <text x="14" y="80" font-size="9" fill="#555">Enfesto: 6,50m comprimento · 30 camadas · 400 peças</text>
  <rect x="14" y="92" width="492" height="556" rx="2" fill="none" stroke="#3a2a1a" stroke-width="1.5"/>
  <line x1="178" y1="92" x2="178" y2="648" stroke="#3a2a1a" stroke-width="1"/>
  <line x1="342" y1="92" x2="342" y2="648" stroke="#3a2a1a" stroke-width="1"/>
  <line x1="14" y1="277" x2="506" y2="277" stroke="#3a2a1a" stroke-width="1"/>
  <line x1="14" y1="462" x2="506" y2="462" stroke="#3a2a1a" stroke-width="1"/>
  <!-- Fileira 1 -->
  <rect x="22" y="100" width="148" height="169" rx="3" fill="#F0EBE5" stroke="#8B6347" stroke-width="1"/>
  <text x="96" y="178" text-anchor="middle" font-size="10" fill="#5C3D1E" font-weight="600">46 cm</text>
  <text x="96" y="193" text-anchor="middle" font-size="10" fill="#5C3D1E">× 46 cm</text>
  <text x="30" y="116" font-size="8" fill="#8B6347">F</text>
  <rect x="186" y="100" width="148" height="169" rx="3" fill="#EDE4DB" stroke="#8B6347" stroke-width="1"/>
  <text x="260" y="178" text-anchor="middle" font-size="10" fill="#5C3D1E" font-weight="600">46 cm</text>
  <text x="260" y="193" text-anchor="middle" font-size="10" fill="#5C3D1E">× 46 cm</text>
  <text x="194" y="116" font-size="8" fill="#8B6347">V</text>
  <rect x="350" y="100" width="148" height="169" rx="3" fill="#F0EBE5" stroke="#8B6347" stroke-width="1"/>
  <text x="424" y="178" text-anchor="middle" font-size="10" fill="#5C3D1E" font-weight="600">46 cm</text>
  <text x="424" y="193" text-anchor="middle" font-size="10" fill="#5C3D1E">× 46 cm</text>
  <text x="358" y="116" font-size="8" fill="#8B6347">F</text>
  <!-- Fileira 2 -->
  <rect x="22" y="285" width="148" height="169" rx="3" fill="#EDE4DB" stroke="#8B6347" stroke-width="1"/>
  <text x="96" y="363" text-anchor="middle" font-size="10" fill="#5C3D1E" font-weight="600">46 cm</text>
  <text x="96" y="378" text-anchor="middle" font-size="10" fill="#5C3D1E">× 46 cm</text>
  <text x="30" y="301" font-size="8" fill="#8B6347">V</text>
  <rect x="186" y="285" width="148" height="169" rx="3" fill="#F0EBE5" stroke="#8B6347" stroke-width="1"/>
  <text x="260" y="363" text-anchor="middle" font-size="10" fill="#5C3D1E" font-weight="600">46 cm</text>
  <text x="260" y="378" text-anchor="middle" font-size="10" fill="#5C3D1E">× 46 cm</text>
  <text x="194" y="301" font-size="8" fill="#8B6347">F</text>
  <rect x="350" y="285" width="148" height="169" rx="3" fill="#EDE4DB" stroke="#8B6347" stroke-width="1"/>
  <text x="424" y="363" text-anchor="middle" font-size="10" fill="#5C3D1E" font-weight="600">46 cm</text>
  <text x="424" y="378" text-anchor="middle" font-size="10" fill="#5C3D1E">× 46 cm</text>
  <text x="358" y="301" font-size="8" fill="#8B6347">V</text>
  <!-- Fileira 3 -->
  <rect x="22" y="470" width="148" height="169" rx="3" fill="#F0EBE5" stroke="#8B6347" stroke-width="1"/>
  <text x="96" y="548" text-anchor="middle" font-size="10" fill="#5C3D1E" font-weight="600">46 cm</text>
  <text x="96" y="563" text-anchor="middle" font-size="10" fill="#5C3D1E">× 46 cm</text>
  <text x="30" y="486" font-size="8" fill="#8B6347">F</text>
  <rect x="186" y="470" width="148" height="169" rx="3" fill="#EDE4DB" stroke="#8B6347" stroke-width="1"/>
  <text x="260" y="548" text-anchor="middle" font-size="10" fill="#5C3D1E" font-weight="600">46 cm</text>
  <text x="260" y="563" text-anchor="middle" font-size="10" fill="#5C3D1E">× 46 cm</text>
  <text x="194" y="486" font-size="8" fill="#8B6347">V</text>
  <rect x="350" y="470" width="148" height="169" rx="3" fill="#F0EBE5" stroke="#8B6347" stroke-width="1"/>
  <text x="424" y="548" text-anchor="middle" font-size="10" fill="#5C3D1E" font-weight="600">46 cm</text>
  <text x="424" y="563" text-anchor="middle" font-size="10" fill="#5C3D1E">× 46 cm</text>
  <text x="358" y="486" font-size="8" fill="#8B6347">F</text>
  <!-- Cota largura -->
  <line x1="14" y1="660" x2="506" y2="660" stroke="#555" stroke-width="0.8"/>
  <text x="260" y="672" text-anchor="middle" font-size="9" fill="#555">1,40 m (largura do tecido)</text>
  <!-- Legenda -->
  <rect x="14" y="648" width="8" height="8" fill="#F0EBE5" stroke="#8B6347" stroke-width="0.7"/>
  <text x="26" y="656" font-size="8" fill="#555">F = Frente</text>
  <rect x="80" y="648" width="8" height="8" fill="#EDE4DB" stroke="#8B6347" stroke-width="0.7"/>
  <text x="92" y="656" font-size="8" fill="#555">V = Verso</text>
</svg>
